<?xml version="1.0" encoding="UTF-8"?>
<svg width="40px" height="40px" viewBox="0 0 40 40" version="1.1" xmlns="http://www.w3.org/2000/svg" xmlns:xlink="http://www.w3.org/1999/xlink">
    <!-- Generator: Sketch 58 (84663) - https://sketch.com -->
    <title>Icon-participants</title>
    <desc>Created with Sketch.</desc>
    <g id="Page-1" stroke="none" stroke-width="1" fill="none" fill-rule="evenodd">
        <g id="Icon-participants">
            <path d="M20,40 C35.045695,40 40,36.045695 40,20 C40,3.954305 35.045695,0 20,0 C4.954305,0 0,4.954305 0,20 C0,35.045695 4.954305,40 20,40 Z" id="Oval" fill="#8BA6C0"></path>
            <g id="people" transform="translate(5.011719, 9.467007)" fill="#FFFFFF">
                <path d="M23.8414157,0.69831785 C23.9208521,0.69831785 24.0000055,0.707782934 24.0772021,0.726512947 L29.1240677,1.95102036 C29.5725173,2.0598265 29.8882813,2.46136466 29.8882813,2.92282526 L29.8882813,18.4119919 C29.8882813,18.8640956 29.5849446,19.2599647 29.1484043,19.3775673 L24.1015387,20.7371773 C23.5682661,20.8808393 23.0195022,20.5649975 22.8758402,20.0317249 C22.8529901,19.9469056 22.8414157,19.8594452 22.8414157,19.7716019 L22.8412812,19.3553178 L20.5824817,19.3558195 C19.696047,19.3558195 18.9686161,18.6643422 18.8945,17.7834683 L18.8882812,17.6349884 L18.8882812,10.8105447 L20.0177482,10.8105447 L20.0177482,17.6349884 C20.0177482,17.920105 20.2225485,18.1566361 20.490879,18.2010912 L20.5824817,18.2085988 L22.8412812,18.2083178 L22.8412812,3.29431785 L20.5824817,3.29472925 C20.3017774,3.29472925 20.0689067,3.50274867 20.0251396,3.77529703 L20.0177482,3.86833961 L20.0177482,6.62327386 L18.8882812,6.62327386 L18.8882812,3.86833961 C18.8882812,2.9679713 19.5690577,2.22910617 20.4362996,2.15382499 L20.5824817,2.14750851 L22.8412812,2.14731785 L22.8414157,1.69831785 C22.8414157,1.1460331 23.2891309,0.69831785 23.8414157,0.69831785 Z M5.56694617,8 C7.02587684,8.13448155 7.83689478,9.26951881 8,11.4051118 L8,12.3385346 C8,12.6679409 7.86953168,12.9839382 7.63713822,13.2173944 C7.40485887,13.450736 7.08918227,13.5819155 6.75993772,13.5819155 L6.1388964,13.5819155 L6.1388964,18.0670838 C6.1388964,18.291563 6.07849439,18.5119068 5.96402489,18.7050069 C5.85562261,18.8878722 5.65880455,19 5.44622338,19 L2.55377662,19 C2.34119545,19 2.14437739,18.8878722 2.03597511,18.7050069 C1.92150561,18.5119068 1.8611036,18.291563 1.8611036,18.0670838 L1.8611036,13.5819155 L1.24006228,13.5819155 C0.910817731,13.5819155 0.595141128,13.450736 0.36286178,13.2173944 C0.130468319,12.9839382 -4.05938221e-14,12.6679409 -4.08562073e-14,12.3385346 L-4.08562073e-14,11.4051118 C0.16310522,9.26951881 0.974123163,8.13448155 2.43305383,8 L5.56694617,8 Z M20.0415923,7.73299318 C20.362061,7.73299318 20.6218523,7.99278442 20.6218523,8.31325317 C20.6218523,8.38486221 20.6085975,8.45585268 20.5827577,8.52263712 L20.5245316,8.67312612 C20.3754878,9.05833879 20.0049468,9.31228106 19.5919058,9.31228106 L16.9679282,9.31228106 C16.7315834,9.31228106 16.5040509,9.40200151 16.3313133,9.56331059 C16.1590322,9.72419337 16.0568216,9.94629818 16.0466898,10.1818006 L15.7187254,17.8049889 C15.709165,18.0272115 15.6474291,18.2440633 15.5385125,18.4380001 C15.4361848,18.6202045 15.2434832,18.7329932 15.0345109,18.7329932 L12.3211363,18.7329932 C12.112164,18.7329932 11.9194624,18.6202045 11.8171347,18.4380001 C11.708515,18.2445919 11.651464,18.0264981 11.651464,17.8046762 L11.651464,13.3149087 L11.0768737,13.3149087 C10.7570877,13.3149087 10.4514552,13.1830354 10.2320513,12.9503876 C10.0112593,12.7162678 9.88828125,12.4066233 9.88828125,12.0848141 L9.88828125,11.138105 C10.0428048,9.00251199 10.8111515,7.86747473 12.1933214,7.73299318 L20.0415923,7.73299318 Z M25.6086098,9.35013675 C25.0563251,9.35013675 24.6086098,9.797852 24.6086098,10.3501368 C24.6086098,10.9024215 25.0563251,11.3501368 25.6086098,11.3501368 C26.1608946,11.3501368 26.6086098,10.9024215 26.6086098,10.3501368 C26.6086098,9.797852 26.1608946,9.35013675 25.6086098,9.35013675 Z M4,3 C5.1045695,3 6,3.8954305 6,5 C6,6.1045695 5.1045695,7 4,7 C2.8954305,7 2,6.1045695 2,5 C2,3.8954305 2.8954305,3 4,3 Z M13.8882813,2.73299318 C14.9928507,2.73299318 15.8882813,3.62842368 15.8882813,4.73299318 C15.8882813,5.83756268 14.9928507,6.73299318 13.8882813,6.73299318 C12.7837118,6.73299318 11.8882813,5.83756268 11.8882813,4.73299318 C11.8882813,3.62842368 12.7837118,2.73299318 13.8882813,2.73299318 Z"></path>
            </g>
        </g>
    </g>
</svg>