<?xml version="1.0" encoding="UTF-8"?>
<svg width="40px" height="40px" viewBox="0 0 40 40" version="1.1" xmlns="http://www.w3.org/2000/svg" xmlns:xlink="http://www.w3.org/1999/xlink">
    <!-- Generator: Sketch 58 (84663) - https://sketch.com -->
    <title>Icon-gdpr</title>
    <desc>Created with Sketch.</desc>
    <g id="Page-1" stroke="none" stroke-width="1" fill="none" fill-rule="evenodd">
        <g id="Icon-gdpr">
            <path d="M20,40 C35.045695,40 40,36.045695 40,20 C40,3.954305 35.045695,0 20,0 C4.954305,0 3.55271368e-15,4.954305 3.55271368e-15,20 C3.55271368e-15,35.045695 4.954305,40 20,40 Z" id="Oval" fill="#0C3399"></path>
            <path d="M20.7125109,30.4566966 C20.8166053,30.4918197 20.8983253,30.5735397 20.9334484,30.677634 L21.1775762,31.4011551 C21.2312278,31.5601619 21.3784267,31.6687744 21.5461844,31.6731369 L22.4713835,31.6971965 C22.6678967,31.7023068 22.8230594,31.865755 22.8179491,32.0622682 C22.81493,32.1783658 22.7554611,32.2856898 22.6586244,32.3498024 L21.9790774,32.79971 C21.8253767,32.9014706 21.7611193,33.0950912 21.8234799,33.2685567 L22.0856754,33.9978931 C22.1516836,34.181505 22.056347,34.3838622 21.8727351,34.4498705 C21.7662036,34.4881684 21.6477713,34.4730948 21.5542297,34.4093325 L20.825296,33.9124574 C20.6893846,33.8198139 20.5106154,33.8198139 20.374704,33.9124574 L19.6457703,34.4093325 C19.4845469,34.5192299 19.26476,34.4776219 19.1548626,34.3163984 C19.0911003,34.2228568 19.0760267,34.1044245 19.1143246,33.9978931 L19.3765201,33.2685567 C19.4388807,33.0950912 19.3746233,32.9014706 19.2209226,32.79971 L18.5413756,32.3498024 C18.3774645,32.2412818 18.3325617,32.0204323 18.4410822,31.8565213 C18.5051949,31.7596846 18.6125188,31.7002156 18.7286165,31.6971965 L19.6538156,31.6731369 C19.8215733,31.6687744 19.9687722,31.5601619 20.0224238,31.4011551 L20.2665516,30.677634 C20.3286897,30.4934756 20.5283525,30.3945585 20.7125109,30.4566966 Z M26.6125109,28.5173026 C26.7166053,28.5524258 26.7983253,28.6341457 26.8334484,28.7382401 L27.0775762,29.4617612 C27.1312278,29.620768 27.2784267,29.7293805 27.4461844,29.733743 L28.3713835,29.7578026 C28.5678967,29.7629129 28.7230594,29.926361 28.7179491,30.1228742 C28.71493,30.2389719 28.6554611,30.3462958 28.5586244,30.4104085 L27.8790774,30.860316 C27.7253767,30.9620767 27.6611193,31.1556972 27.7234799,31.3291628 L27.9856754,32.0584991 C28.0516836,32.2421111 27.956347,32.4444683 27.7727351,32.5104765 C27.6662036,32.5487744 27.5477713,32.5337009 27.4542297,32.4699385 L26.725296,31.9730635 C26.5893846,31.8804199 26.4106154,31.8804199 26.274704,31.9730635 L25.5457703,32.4699385 C25.3845469,32.579836 25.16476,32.538228 25.0548626,32.3770045 C24.9911003,32.2834629 24.9760267,32.1650305 25.0143246,32.0584991 L25.2765201,31.3291628 C25.3388807,31.1556972 25.2746233,30.9620767 25.1209226,30.860316 L24.4413756,30.4104085 C24.2774645,30.3018879 24.2325617,30.0810384 24.3410822,29.9171273 C24.4051949,29.8202906 24.5125188,29.7608217 24.6286165,29.7578026 L25.5538156,29.733743 C25.7215733,29.7293805 25.8687722,29.620768 25.9224238,29.4617612 L26.1665516,28.7382401 C26.2286897,28.5540816 26.4283525,28.4551646 26.6125109,28.5173026 Z M14.6125109,28.5173026 C14.7166053,28.5524258 14.7983253,28.6341457 14.8334484,28.7382401 L15.0775762,29.4617612 C15.1312278,29.620768 15.2784267,29.7293805 15.4461844,29.733743 L16.3713835,29.7578026 C16.5678967,29.7629129 16.7230594,29.926361 16.7179491,30.1228742 C16.71493,30.2389719 16.6554611,30.3462958 16.5586244,30.4104085 L15.8790774,30.860316 C15.7253767,30.9620767 15.6611193,31.1556972 15.7234799,31.3291628 L15.9856754,32.0584991 C16.0516836,32.2421111 15.956347,32.4444683 15.7727351,32.5104765 C15.6662036,32.5487744 15.5477713,32.5337009 15.4542297,32.4699385 L14.725296,31.9730635 C14.5893846,31.8804199 14.4106154,31.8804199 14.274704,31.9730635 L13.5457703,32.4699385 C13.3845469,32.579836 13.16476,32.538228 13.0548626,32.3770045 C12.9911003,32.2834629 12.9760267,32.1650305 13.0143246,32.0584991 L13.2765201,31.3291628 C13.3388807,31.1556972 13.2746233,30.9620767 13.1209226,30.860316 L12.4413756,30.4104085 C12.2774645,30.3018879 12.2325617,30.0810384 12.3410822,29.9171273 C12.4051949,29.8202906 12.5125188,29.7608217 12.6286165,29.7578026 L13.5538156,29.733743 C13.7215733,29.7293805 13.8687722,29.620768 13.9224238,29.4617612 L14.1665516,28.7382401 C14.2286897,28.5540816 14.4283525,28.4551646 14.6125109,28.5173026 Z M30.6125109,23.6688178 C30.7166053,23.7039409 30.7983253,23.7856609 30.8334484,23.8897552 L31.0775762,24.6132763 C31.1312278,24.7722831 31.2784267,24.8808956 31.4461844,24.8852581 L32.3713835,24.9093178 C32.5678967,24.914428 32.7230594,25.0778762 32.7179491,25.2743894 C32.71493,25.390487 32.6554611,25.497811 32.5586244,25.5619236 L31.8790774,26.0118312 C31.7253767,26.1135918 31.6611193,26.3072124 31.7234799,26.480678 L31.9856754,27.2100143 C32.0516836,27.3936262 31.956347,27.5959834 31.7727351,27.6619917 C31.6662036,27.7002896 31.5477713,27.685216 31.4542297,27.6214537 L30.725296,27.1245786 C30.5893846,27.0319351 30.4106154,27.0319351 30.274704,27.1245786 L29.5457703,27.6214537 C29.3845469,27.7313511 29.16476,27.6897431 29.0548626,27.5285197 C28.9911003,27.434978 28.9760267,27.3165457 29.0143246,27.2100143 L29.2765201,26.480678 C29.3388807,26.3072124 29.2746233,26.1135918 29.1209226,26.0118312 L28.4413756,25.5619236 C28.2774645,25.453403 28.2325617,25.2325536 28.3410822,25.0686425 C28.4051949,24.9718058 28.5125188,24.9123368 28.6286165,24.9093178 L29.5538156,24.8852581 C29.7215733,24.8808956 29.8687722,24.7722831 29.9224238,24.6132763 L30.1665516,23.8897552 C30.2286897,23.7055968 30.4283525,23.6066797 30.6125109,23.6688178 Z M10.2125109,23.6688178 C10.3166053,23.7039409 10.3983253,23.7856609 10.4334484,23.8897552 L10.6775762,24.6132763 C10.7312278,24.7722831 10.8784267,24.8808956 11.0461844,24.8852581 L11.9713835,24.9093178 C12.1678967,24.914428 12.3230594,25.0778762 12.3179491,25.2743894 C12.31493,25.390487 12.2554611,25.497811 12.1586244,25.5619236 L11.4790774,26.0118312 C11.3253767,26.1135918 11.2611193,26.3072124 11.3234799,26.480678 L11.5856754,27.2100143 C11.6516836,27.3936262 11.556347,27.5959834 11.3727351,27.6619917 C11.2662036,27.7002896 11.1477713,27.685216 11.0542297,27.6214537 L10.325296,27.1245786 C10.1893846,27.0319351 10.0106154,27.0319351 9.87470401,27.1245786 L9.14577034,27.6214537 C8.98454687,27.7313511 8.76475999,27.6897431 8.65486258,27.5285197 C8.59110026,27.434978 8.57602671,27.3165457 8.61432461,27.2100143 L8.87652008,26.480678 C8.93888072,26.3072124 8.87462331,26.1135918 8.72092255,26.0118312 L8.0413756,25.5619236 C7.87746453,25.453403 7.83256166,25.2325536 7.94108224,25.0686425 C8.00519491,24.9718058 8.11251883,24.9123368 8.22861649,24.9093178 L9.15381565,24.8852581 C9.3215733,24.8808956 9.46877224,24.7722831 9.52242375,24.6132763 L9.76655161,23.8897552 C9.82868969,23.7055968 10.0283525,23.6066797 10.2125109,23.6688178 Z M32.6125109,17.850636 C32.7166053,17.8857591 32.7983253,17.9674791 32.8334484,18.0715734 L33.0775762,18.7950945 C33.1312278,18.9541013 33.2784267,19.0627138 33.4461844,19.0670763 L34.3713835,19.0911359 C34.5678967,19.0962462 34.7230594,19.2596944 34.7179491,19.4562076 C34.71493,19.5723052 34.6554611,19.6796291 34.5586244,19.7437418 L33.8790774,20.1936494 C33.7253767,20.29541 33.6611193,20.4890306 33.7234799,20.6624961 L33.9856754,21.3918324 C34.0516836,21.5754444 33.956347,21.7778016 33.7727351,21.8438099 C33.6662036,21.8821078 33.5477713,21.8670342 33.4542297,21.8032719 L32.725296,21.3063968 C32.5893846,21.2137533 32.4106154,21.2137533 32.274704,21.3063968 L31.5457703,21.8032719 C31.3845469,21.9131693 31.16476,21.8715613 31.0548626,21.7103378 C30.9911003,21.6167962 30.9760267,21.4983639 31.0143246,21.3918324 L31.2765201,20.6624961 C31.3388807,20.4890306 31.2746233,20.29541 31.1209226,20.1936494 L30.4413756,19.7437418 C30.2774645,19.6352212 30.2325617,19.4143717 30.3410822,19.2504607 C30.4051949,19.153624 30.5125188,19.094155 30.6286165,19.0911359 L31.5538156,19.0670763 C31.7215733,19.0627138 31.8687722,18.9541013 31.9224238,18.7950945 L32.1665516,18.0715734 C32.2286897,17.8874149 32.4283525,17.7884979 32.6125109,17.850636 Z M8.11251095,17.850636 C8.21660528,17.8857591 8.29832525,17.9674791 8.33344839,18.0715734 L8.57757625,18.7950945 C8.63122776,18.9541013 8.7784267,19.0627138 8.94618435,19.0670763 L9.87138351,19.0911359 C10.0678967,19.0962462 10.2230594,19.2596944 10.2179491,19.4562076 C10.21493,19.5723052 10.1554611,19.6796291 10.0586244,19.7437418 L9.37907745,20.1936494 C9.22537669,20.29541 9.16111928,20.4890306 9.22347992,20.6624961 L9.48567539,21.3918324 C9.55168365,21.5754444 9.45634701,21.7778016 9.27273505,21.8438099 C9.16620364,21.8821078 9.0477713,21.8670342 8.95422966,21.8032719 L8.22529599,21.3063968 C8.08938458,21.2137533 7.91061542,21.2137533 7.77470401,21.3063968 L7.04577034,21.8032719 C6.88454687,21.9131693 6.66475999,21.8715613 6.55486258,21.7103378 C6.49110026,21.6167962 6.47602671,21.4983639 6.51432461,21.3918324 L6.77652008,20.6624961 C6.83888072,20.4890306 6.77462331,20.29541 6.62092255,20.1936494 L5.9413756,19.7437418 C5.77746453,19.6352212 5.73256166,19.4143717 5.84108224,19.2504607 C5.90519491,19.153624 6.01251883,19.094155 6.12861649,19.0911359 L7.05381565,19.0670763 C7.2215733,19.0627138 7.36877224,18.9541013 7.42242375,18.7950945 L7.66655161,18.0715734 C7.72868969,17.8874149 7.92835249,17.7884979 8.11251095,17.850636 Z M30.6125109,12.0324541 C30.7166053,12.0675773 30.7983253,12.1492973 30.8334484,12.2533916 L31.0775762,12.9769127 C31.1312278,13.1359195 31.2784267,13.244532 31.4461844,13.2488945 L32.3713835,13.2729541 C32.5678967,13.2780644 32.7230594,13.4415125 32.7179491,13.6380257 C32.71493,13.7541234 32.6554611,13.8614473 32.5586244,13.92556 L31.8790774,14.3754676 C31.7253767,14.4772282 31.6611193,14.6708488 31.7234799,14.8443143 L31.9856754,15.5736506 C32.0516836,15.7572626 31.956347,15.9596198 31.7727351,16.025628 C31.6662036,16.0639259 31.5477713,16.0488524 31.4542297,15.9850901 L30.725296,15.488215 C30.5893846,15.3955715 30.4106154,15.3955715 30.274704,15.488215 L29.5457703,15.9850901 C29.3845469,16.0949875 29.16476,16.0533795 29.0548626,15.892156 C28.9911003,15.7986144 28.9760267,15.680182 29.0143246,15.5736506 L29.2765201,14.8443143 C29.3388807,14.6708488 29.2746233,14.4772282 29.1209226,14.3754676 L28.4413756,13.92556 C28.2774645,13.8170394 28.2325617,13.5961899 28.3410822,13.4322789 C28.4051949,13.3354421 28.5125188,13.2759732 28.6286165,13.2729541 L29.5538156,13.2488945 C29.7215733,13.244532 29.8687722,13.1359195 29.9224238,12.9769127 L30.1665516,12.2533916 C30.2286897,12.0692331 30.4283525,11.9703161 30.6125109,12.0324541 Z M10.2125109,12.0324541 C10.3166053,12.0675773 10.3983253,12.1492973 10.4334484,12.2533916 L10.6775762,12.9769127 C10.7312278,13.1359195 10.8784267,13.244532 11.0461844,13.2488945 L11.9713835,13.2729541 C12.1678967,13.2780644 12.3230594,13.4415125 12.3179491,13.6380257 C12.31493,13.7541234 12.2554611,13.8614473 12.1586244,13.92556 L11.4790774,14.3754676 C11.3253767,14.4772282 11.2611193,14.6708488 11.3234799,14.8443143 L11.5856754,15.5736506 C11.6516836,15.7572626 11.556347,15.9596198 11.3727351,16.025628 C11.2662036,16.0639259 11.1477713,16.0488524 11.0542297,15.9850901 L10.325296,15.488215 C10.1893846,15.3955715 10.0106154,15.3955715 9.87470401,15.488215 L9.14577034,15.9850901 C8.98454687,16.0949875 8.76475999,16.0533795 8.65486258,15.892156 C8.59110026,15.7986144 8.57602671,15.680182 8.61432461,15.5736506 L8.87652008,14.8443143 C8.93888072,14.6708488 8.87462331,14.4772282 8.72092255,14.3754676 L8.0413756,13.92556 C7.87746453,13.8170394 7.83256166,13.5961899 7.94108224,13.4322789 C8.00519491,13.3354421 8.11251883,13.2759732 8.22861649,13.2729541 L9.15381565,13.2488945 C9.3215733,13.244532 9.46877224,13.1359195 9.52242375,12.9769127 L9.76655161,12.2533916 C9.82868969,12.0692331 10.0283525,11.9703161 10.2125109,12.0324541 Z M26.6125109,7.1839693 C26.7166053,7.21909243 26.7983253,7.30081241 26.8334484,7.40490674 L27.0775762,8.12842782 C27.1312278,8.28743466 27.2784267,8.39604713 27.4461844,8.40040963 L28.3713835,8.42446927 C28.5678967,8.42957955 28.7230594,8.59302769 28.7179491,8.7895409 C28.71493,8.90563856 28.6554611,9.01296248 28.5586244,9.07707514 L27.8790774,9.52698271 C27.7253767,9.62874335 27.6611193,9.82236391 27.7234799,9.99582947 L27.9856754,10.7251658 C28.0516836,10.9087777 27.956347,11.1111349 27.7727351,11.1771432 C27.6662036,11.2154411 27.5477713,11.2003675 27.4542297,11.1366052 L26.725296,10.6397301 C26.5893846,10.5470866 26.4106154,10.5470866 26.274704,10.6397301 L25.5457703,11.1366052 C25.3845469,11.2465026 25.16476,11.2048946 25.0548626,11.0436712 C24.9911003,10.9501295 24.9760267,10.8316972 25.0143246,10.7251658 L25.2765201,9.99582947 C25.3388807,9.82236391 25.2746233,9.62874335 25.1209226,9.52698271 L24.4413756,9.07707514 C24.2774645,8.96855456 24.2325617,8.74770508 24.3410822,8.58379401 C24.4051949,8.4869573 24.5125188,8.42748836 24.6286165,8.42446927 L25.5538156,8.40040963 C25.7215733,8.39604713 25.8687722,8.28743466 25.9224238,8.12842782 L26.1665516,7.40490674 C26.2286897,7.22074828 26.4283525,7.12183122 26.6125109,7.1839693 Z M14.6125109,7.1839693 C14.7166053,7.21909243 14.7983253,7.30081241 14.8334484,7.40490674 L15.0775762,8.12842782 C15.1312278,8.28743466 15.2784267,8.39604713 15.4461844,8.40040963 L16.3713835,8.42446927 C16.5678967,8.42957955 16.7230594,8.59302769 16.7179491,8.7895409 C16.71493,8.90563856 16.6554611,9.01296248 16.5586244,9.07707514 L15.8790774,9.52698271 C15.7253767,9.62874335 15.6611193,9.82236391 15.7234799,9.99582947 L15.9856754,10.7251658 C16.0516836,10.9087777 15.956347,11.1111349 15.7727351,11.1771432 C15.6662036,11.2154411 15.5477713,11.2003675 15.4542297,11.1366052 L14.725296,10.6397301 C14.5893846,10.5470866 14.4106154,10.5470866 14.274704,10.6397301 L13.5457703,11.1366052 C13.3845469,11.2465026 13.16476,11.2048946 13.0548626,11.0436712 C12.9911003,10.9501295 12.9760267,10.8316972 13.0143246,10.7251658 L13.2765201,9.99582947 C13.3388807,9.82236391 13.2746233,9.62874335 13.1209226,9.52698271 L12.4413756,9.07707514 C12.2774645,8.96855456 12.2325617,8.74770508 12.3410822,8.58379401 C12.4051949,8.4869573 12.5125188,8.42748836 12.6286165,8.42446927 L13.5538156,8.40040963 C13.7215733,8.39604713 13.8687722,8.28743466 13.9224238,8.12842782 L14.1665516,7.40490674 C14.2286897,7.22074828 14.4283525,7.12183122 14.6125109,7.1839693 Z M20.7125109,5.24457536 C20.8166053,5.27969849 20.8983253,5.36141847 20.9334484,5.4655128 L21.1775762,6.18903388 C21.2312278,6.34804072 21.3784267,6.45665319 21.5461844,6.46101569 L22.4713835,6.48507533 C22.6678967,6.49018562 22.8230594,6.65363375 22.8179491,6.85014696 C22.81493,6.96624462 22.7554611,7.07356854 22.6586244,7.13768121 L21.9790774,7.58758877 C21.8253767,7.68934941 21.7611193,7.88296998 21.8234799,8.05643553 L22.0856754,8.78577184 C22.1516836,8.9693838 22.056347,9.17174098 21.8727351,9.23774924 C21.7662036,9.27604715 21.6477713,9.2609736 21.5542297,9.19721128 L20.825296,8.7003362 C20.6893846,8.60769267 20.5106154,8.60769267 20.374704,8.7003362 L19.6457703,9.19721128 C19.4845469,9.30710868 19.26476,9.26550069 19.1548626,9.10427723 C19.0911003,9.01073559 19.0760267,8.89230326 19.1143246,8.78577184 L19.3765201,8.05643553 C19.4388807,7.88296998 19.3746233,7.68934941 19.2209226,7.58758877 L18.5413756,7.13768121 C18.3774645,7.02916063 18.3325617,6.80831114 18.4410822,6.64440007 C18.5051949,6.54756336 18.6125188,6.48809442 18.7286165,6.48507533 L19.6538156,6.46101569 C19.8215733,6.45665319 19.9687722,6.34804072 20.0224238,6.18903388 L20.2665516,5.4655128 C20.3286897,5.28135434 20.5283525,5.18243728 20.7125109,5.24457536 Z" id="Euro" fill="#FFCC00"></path>
        </g>
    </g>
</svg>