<?xml version="1.0" encoding="UTF-8"?>
<svg width="40px" height="40px" viewBox="0 0 40 40" version="1.1" xmlns="http://www.w3.org/2000/svg" xmlns:xlink="http://www.w3.org/1999/xlink">
    <!-- Generator: Sketch 58 (84663) - https://sketch.com -->
    <title>Icon-support</title>
    <desc>Created with Sketch.</desc>
    <g id="Page-1" stroke="none" stroke-width="1" fill="none" fill-rule="evenodd">
        <g id="Icon-support">
            <path d="M20,40 C35.045695,40 40,36.045695 40,20 C40,3.954305 35.045695,0 20,0 C4.954305,0 0,4.954305 0,20 C0,35.045695 4.954305,40 20,40 Z" id="Oval" fill="#577592"></path>
            <g id="Support-face" transform="translate(5.000000, 5.000000)" fill="#FFFFFF" fill-rule="nonzero">
                <path d="M15.5,2.84217094e-14 C20.4501642,2.84217094e-14 24.6007523,3.41989487 25.7093518,8.02263924 L25.9320169,8.04623633 C28.8223127,8.41916925 31,10.9727793 31,14 C31,17.0049044 28.8536834,19.5459506 25.9901287,19.9459561 L25.93381,19.9533093 L25.8736752,19.9601714 L25.7686855,19.9700053 C24.9336021,23.8742351 21.9129424,27.0279613 17.9435785,27.9728189 L17.831766,27.9929791 C17.4219184,29.1618375 16.3088409,30 15,30 C13.3431458,30 12,28.6568542 12,27 C12,25.3431458 13.3431458,24 15,24 C16.2839862,24 17.3795735,24.8066316 17.8076598,25.9407928 C21.3464378,24.949958 23.8791747,21.7628983 23.9957977,18.0444503 L24,17.7761997 L24,10.4821999 C24,9.50668765 23.8349661,8.56960825 23.5312319,7.69726284 C19.7551187,9.23730323 16.2212907,8.9084492 13.0402359,6.71569599 L12.7520241,6.51122021 L12.561091,6.76095726 C11.1910533,8.49047988 9.32963652,9.54153012 7.02081321,9.89374392 C7.012546,10.0042165 7.00706392,10.1156342 7.00375619,10.227596 L7,10.4821999 L7,18.5055997 C7,18.7427802 6.91742783,18.9606749 6.77946204,19.1321054 C6.71576288,19.6223233 6.29672384,20 5.78947368,20 C2.58218327,20 -1.687539e-14,17.3043142 -1.687539e-14,14 C-1.687539e-14,10.869043 2.31834786,8.28452756 5.29011724,8.02195792 C6.39924766,3.41989487 10.5498358,2.84217094e-14 15.5,2.84217094e-14 Z M15,26 C14.4477153,26 14,26.4477153 14,27 C14,27.5522847 14.4477153,28 15,28 C15.5522847,28 16,27.5522847 16,27 C16,26.4477153 15.5522847,26 15,26 Z M10.6214183,16.0744321 C11.1325953,15.8653472 11.716483,16.1102413 11.9255679,16.6214183 C12.5079056,18.045135 13.9160837,19 15.5075703,19 C17.0875929,19 18.4876385,18.0588846 19.0776381,16.6502509 C19.2910006,16.1408445 19.8769205,15.9008535 20.3863269,16.114216 C20.8957334,16.3275784 21.1357244,16.9134984 20.9223619,17.4229048 C20.0223992,19.5715805 17.8974182,21 15.5075703,21 C13.100268,21 10.9628702,19.5506618 10.0744321,17.3785817 C9.86534722,16.8674047 10.1102413,16.283517 10.6214183,16.0744321 Z M25.9920367,10.0849699 L25.9962254,10.1983667 L26,10.4821999 L26,17.7761997 C26,17.8216919 25.9997074,17.8671251 25.9991238,17.9124974 C27.7198173,17.5297077 29,15.9150329 29,14 C29,12.0812544 27.7153391,10.4658333 25.9920367,10.0849699 Z M5.00739318,10.0851499 L4.84571301,10.12535 C3.21485112,10.5673789 2,12.1281125 2,14 C2,15.9306089 3.29226681,17.5302358 5.00039775,17.9129219 L5,10.4821999 C5,10.349257 5.00247894,10.2168924 5.00739318,10.0851499 Z M12,10 C13.1045695,10 14,10.8954305 14,12 C14,13.1045695 13.1045695,14 12,14 C10.8954305,14 10,13.1045695 10,12 C10,10.8954305 10.8954305,10 12,10 Z M19,10 C20.1045695,10 21,10.8954305 21,12 C21,13.1045695 20.1045695,14 19,14 C17.8954305,14 17,13.1045695 17,12 C17,10.8954305 17.8954305,10 19,10 Z M15.5,2 C11.7549381,2 8.57599815,4.41676771 7.44305471,7.77225048 C9.28974487,7.32014716 10.671908,6.25389331 11.6451591,4.54970602 C11.9569516,4.00374957 12.6892357,3.87754649 13.1657949,4.28763709 C16.0314671,6.75361661 19.1425416,7.28784921 22.6512073,5.89620193 C21.1396081,3.55250868 18.5016398,2 15.5,2 Z" id="Combined-Shape"></path>
            </g>
        </g>
    </g>
</svg>